<svg xmlns="http://www.w3.org/2000/svg" viewBox="0 0 1200 900" role="img" aria-labelledby="title desc">
  <title id="title">Concepto de decoración en centros comerciales</title>
  <desc id="desc">Ilustración de atrio decorado con elementos luminosos navideños.</desc>
  <defs>
    <linearGradient id="bg" x1="0%" y1="0%" x2="100%" y2="100%">
      <stop offset="0%" stop-color="#07111f"/>
      <stop offset="100%" stop-color="#12385c"/>
    </linearGradient>
  </defs>
  <rect width="1200" height="900" rx="48" fill="url(#bg)"/>
  <rect x="126" y="156" width="948" height="590" rx="40" fill="rgba(255,255,255,.05)" stroke="rgba(255,255,255,.08)"/>
  <rect x="210" y="214" width="190" height="468" rx="24" fill="rgba(255,255,255,.06)"/>
  <rect x="504" y="214" width="192" height="468" rx="24" fill="rgba(255,255,255,.06)"/>
  <rect x="800" y="214" width="190" height="468" rx="24" fill="rgba(255,255,255,.06)"/>
  <path d="M598 212 664 332H620l56 94h-50l68 128H504l68-128h-50l56-94h-44z" fill="none" stroke="#50e6ff" stroke-width="16" stroke-linejoin="round"/>
  <path d="M598 152 620 194 668 200 634 234 642 282 598 258 554 282 562 234 528 200 576 194z" fill="#ffd257"/>
  <path d="M280 264c44 0 80 34 80 76s-36 76-80 76-80-34-80-76 36-76 80-76Zm0 0v152" fill="none" stroke="#ef4444" stroke-width="14"/>
  <path d="M914 264c44 0 80 34 80 76s-36 76-80 76-80-34-80-76 36-76 80-76Zm0 0v152" fill="none" stroke="#ffd257" stroke-width="14"/>
</svg>
